<svg width="20" height="20" viewBox="0 0 20 20" fill="none" xmlns="http://www.w3.org/2000/svg">
<g clip-path="url(#clip0_810_2589)">
<path d="M19.9825 9.99664C19.9825 15.4922 15.5278 19.9469 10.0323 19.9469C4.53696 19.9469 0.0820313 15.4922 0.0820312 9.99664C0.0820312 4.50121 4.53696 0.0463867 10.0323 0.0463867C15.5278 0.0463867 19.9825 4.50121 19.9825 9.99664Z" fill="#1BA27A"/>
<path d="M14.7022 5.06372H5.28027V7.33835H8.85391V10.6816H11.1285V7.33835H14.7022V5.06372Z" fill="white"/>
<path d="M10.0125 11.0377C7.05628 11.0377 4.65957 10.5699 4.65957 9.99267C4.65957 9.41556 7.05618 8.94759 10.0125 8.94759C12.9687 8.94759 15.3653 9.41556 15.3653 9.99267C15.3653 10.5699 12.9687 11.0377 10.0125 11.0377ZM16.0229 10.1669C16.0229 9.42262 13.332 8.81934 10.0125 8.81934C6.6931 8.81934 4.00195 9.42262 4.00195 10.1669C4.00195 10.8223 6.08862 11.3684 8.85369 11.4894V16.2888H11.1281V11.4913C13.9145 11.3741 16.0229 10.8257 16.0229 10.1669Z" fill="white"/>
</g>
<defs>
<clipPath id="clip0_810_2589">
<rect width="20" height="20" fill="white"/>
</clipPath>
</defs>
</svg>
