<svg width="24" height="24" viewBox="0 0 24 24" fill="none" xmlns="http://www.w3.org/2000/svg">
<rect width="24" height="24" rx="12" fill="#7A88A4"/>
<path d="M17.4167 7.5H14.1667V9.75H9.83333V7.5H6.58333C5.98524 7.5 5.5 8.00391 5.5 8.625V16.875C5.5 17.4961 5.98524 18 6.58333 18H17.4167C18.0148 18 18.5 17.4961 18.5 16.875V8.625C18.5 8.00391 18.0148 7.5 17.4167 7.5ZM12 11.25C12.7967 11.25 13.4444 11.9227 13.4444 12.75C13.4444 13.5773 12.7967 14.25 12 14.25C11.2033 14.25 10.5556 13.5773 10.5556 12.75C10.5556 11.9227 11.2033 11.25 12 11.25ZM14.1057 16.5H9.89427C9.65955 16.5 9.46997 16.2656 9.54219 16.0359C9.72951 15.4359 10.2734 15 10.9167 15H11.1017C11.3793 15.1195 11.6818 15.1875 12 15.1875C12.3182 15.1875 12.6229 15.1195 12.8983 15H13.0833C13.7243 15 14.2682 15.4336 14.4578 16.0359C14.53 16.2656 14.3405 16.5 14.1057 16.5ZM13.4444 6.75C13.4444 6.33516 13.1217 6 12.7222 6H11.2778C10.8783 6 10.5556 6.33516 10.5556 6.75V9H13.4444V6.75Z" fill="white"/>
</svg>
